<svg id="Layer_5" enable-background="new 0 0 64 64" height="512" viewBox="0 0 64 64" width="512" xmlns="http://www.w3.org/2000/svg"><g><g><g><path d="m35 14 5 3-1.13 2.64-.31.72c-.15.34-.32.66-.52.96-1.1 1.66-2.97 2.68-5 2.68h-1.04-1.04c-2.03 0-3.9-1.02-5-2.68-.2-.3-.37-.62-.52-.96l-.31-.72-1.13-2.64 5-3h1 4z" fill="#dfb28b"/></g><g><path d="m33 6c.55 0 1 .45 1 1v1 6h-4v-6-1c0-.55.45-1 1-1z" fill="#d3a06c"/></g><g><path d="m34.89 37.73c.92 1.85 2.05 3.58 3.34 5.17-1.97.62-4.16 1.1-6.23 1.1s-4.26-.48-6.24-1.1c1.3-1.59 2.43-3.32 3.35-5.17.97.17 1.94.27 2.89.27s1.92-.1 2.89-.27z" fill="#d3a06c"/></g><g><path d="m22.03 47.48c2.59 1.14 6.45 2.52 9.97 2.52s7.38-1.38 9.97-2.52h.01c-.1 2.48-1.05 4.85-2.29 6.93h-.01c-2.32.84-5.09 1.59-7.68 1.59s-5.36-.75-7.68-1.59h-.01c-1.24-2.08-2.19-4.45-2.29-6.93z" fill="#d3a06c"/></g><g><path d="m32 56c2.59 0 5.36-.75 7.68-1.59h.01c-1.93 3.23-4.58 5.77-5.89 6.92-.5.43-1.14.67-1.8.67s-1.3-.24-1.8-.67c-1.31-1.15-3.96-3.69-5.89-6.92h.01c2.32.84 5.09 1.59 7.68 1.59z" fill="#b27946"/></g><g><path d="m42 47c0 .16 0 .32-.02.48h-.01c-2.59 1.14-6.45 2.52-9.97 2.52s-7.38-1.38-9.97-2.52h-.01c-.02-.16-.02-.32-.02-.48 0-.11 0-.21 0-.32.67-.55 1.32-1.14 1.93-1.75.64-.64 1.26-1.32 1.83-2.03 1.98.62 4.17 1.1 6.24 1.1s4.26-.48 6.23-1.1c.58.71 1.2 1.39 1.84 2.03.61.61 1.26 1.2 1.93 1.75z" fill="#b27946"/></g><g><path d="m29.11 37.73c1.85-3.7 2.89-7.88 2.89-12.3 0 4.42 1.04 8.6 2.89 12.3-.97.17-1.94.27-2.89.27s-1.92-.1-2.89-.27z" fill="#b27946"/></g><g><path d="m32 24v1.43c0 4.42-1.04 8.6-2.89 12.3-.92 1.85-2.05 3.58-3.35 5.17-.57.71-1.19 1.39-1.83 2.03-.61.61-1.26 1.2-1.93 1.75-8.25 5.09-12.77 6.32-17.57 6.32-.67 0-1.28-.27-1.72-.71s-.71-1.05-.71-1.72c0-.37.09-.75.26-1.08 4.72-9.47 11.31-17.86 19.32-24.69 1.42-1.21 2.88-2.37 4.38-3.48 1.1 1.66 2.97 2.68 5 2.68z" fill="#cf9e76"/></g><g><path d="m42 46.68c-.67-.55-1.32-1.14-1.93-1.75-.64-.64-1.26-1.32-1.84-2.03-1.29-1.59-2.42-3.32-3.34-5.17-1.85-3.7-2.89-7.88-2.89-12.3v-1.43h1.04c2.03 0 3.9-1.02 5-2.68 1.5 1.11 2.96 2.27 4.38 3.48 8.01 6.83 14.6 15.22 19.32 24.69.17.33.26.71.26 1.08 0 .67-.27 1.28-.71 1.72s-1.05.71-1.72.71c-4.8 0-9.32-1.23-17.57-6.32z" fill="#cf9e76"/></g><g><path d="m30 8v6h-1-5c0-1.66.67-3.16 1.76-4.24 1.08-1.09 2.58-1.76 4.24-1.76z" fill="#ff826e"/></g><g><path d="m40 14h-5-1v-6c3.31 0 6 2.69 6 6z" fill="#ff826e"/></g></g><g><path d="m62.638 49.04c-4.283-8.566-10.14-16.338-17.163-22.848l5.87.734 2.931 5.861 5.353 2.142.743-1.857-4.647-1.858-3.069-6.139-9.829-1.229c-1.14-.966-2.307-1.898-3.5-2.798.048-.099.107-.189.151-.291l.083-.194 13.094-1.637 3.069-6.139 4.647-1.858-.743-1.857-5.353 2.142-2.931 5.861-10.871 1.359.789-1.841-2.652-1.593h2.39v-1c0-3.265-2.251-6.008-5.28-6.777l3.112-4.668-1.664-1.109-2.759 4.138c-.361-.361-.859-.584-1.409-.584h-2c-.55 0-1.048.223-1.409.583l-2.759-4.138-1.664 1.109 3.112 4.668c-3.029.77-5.28 3.513-5.28 6.778v1h2.39l-2.653 1.592.789 1.841-10.871-1.359-2.931-5.861-5.352-2.142-.743 1.857 4.647 1.858 3.069 6.139 13.094 1.637.083.194c.044.102.103.192.151.291-1.193.9-2.36 1.832-3.5 2.798l-9.829 1.229-3.069 6.139-4.647 1.858.743 1.857 5.353-2.142 2.931-5.861 5.87-.734c-7.023 6.51-12.88 14.282-17.163 22.848-.237.475-.362 1.005-.362 1.534 0 1.89 1.538 3.427 3.427 3.427 6.227 0 11.991-2.009 16.691-5.404.813 6.163 6.056 11.405 8.421 13.482.676.595 1.55.922 2.461.922s1.785-.327 2.461-.921c2.365-2.077 7.608-7.32 8.421-13.483 4.699 3.395 10.463 5.404 16.691 5.404 1.889 0 3.427-1.537 3.427-3.427 0-.529-.125-1.059-.362-1.533zm-23.739-36.04h-3.899v-3.89c1.955.399 3.501 1.935 3.899 3.89zm-5.899-6v6h-2v-6zm-4 2.11v3.89h-3.899c.398-1.955 1.944-3.491 3.899-3.89zm.277 5.89h5.446l4.014 2.408-1.097 2.562c-.79 1.841-2.594 3.03-4.597 3.03h-2.087c-2.002 0-3.807-1.189-4.596-3.03l-1.097-2.562zm-26.277 35.573c0-.221.052-.441.151-.639 5.326-10.652 13.146-20.043 22.643-27.227 1.303 1.43 3.156 2.293 5.163 2.293h.043v.427c0 14.652-11.92 26.573-26.573 26.573-.787 0-1.427-.64-1.427-1.427zm36.007 3.004c-2.645.936-5.006 1.423-7.007 1.423s-4.362-.487-7.007-1.423c-.807-1.404-1.452-2.934-1.772-4.521 2.552.995 5.764 1.944 8.779 1.944s6.227-.949 8.779-1.944c-.32 1.587-.966 3.117-1.772 4.521zm-7.007-4.577c-2.998 0-6.293-1.068-8.765-2.091 1.017-.892 1.97-1.854 2.853-2.88 2.164.634 4.156.971 5.912.971 1.757 0 3.75-.337 5.913-.97.882 1.026 1.835 1.988 2.852 2.879-2.472 1.023-5.767 2.091-8.765 2.091zm0-6c-1.356 0-2.888-.228-4.559-.664.822-1.116 1.564-2.293 2.219-3.523.815.113 1.606.187 2.34.187s1.526-.074 2.34-.187c.655 1.23 1.397 2.407 2.219 3.523-1.67.436-3.202.664-4.559.664zm-1.423-6.078c.57-1.292 1.047-2.632 1.423-4.015.376 1.383.853 2.724 1.423 4.015-.965.097-1.88.097-2.846 0zm2.564 23.654c-.622.547-1.66.548-2.283-.001-.828-.727-2.497-2.294-4.085-4.357 1.897.506 3.655.782 5.227.782s3.33-.276 5.226-.781c-1.588 2.062-3.257 3.63-4.085 4.357zm26.432-8.576c-14.653 0-26.573-11.921-26.573-26.573v-.427h.043c2.006 0 3.86-.863 5.163-2.293 9.497 7.184 17.317 16.576 22.643 27.228.099.197.151.418.151.638 0 .787-.64 1.427-1.427 1.427z"/><path d="m40.652 27.239-1.304 1.516c.635.547 1.262 1.104 1.878 1.672l1.354-1.471c-.632-.583-1.275-1.156-1.928-1.717z"/><path d="m42.327 31.462c4.095 3.929 7.739 8.331 10.831 13.083l1.677-1.09c-3.176-4.881-6.917-9.401-11.123-13.437z"/><path d="m24.099 36.489c-1.629 2.886-3.921 5.427-6.627 7.35l1.158 1.631c2.944-2.093 5.438-4.857 7.21-7.996z"/><path d="m13.511 46.091.808 1.83c.742-.328 1.474-.695 2.175-1.093l-.986-1.74c-.645.365-1.317.702-1.997 1.003z"/></g></g></svg>